#!OML:ASF H:\Dans Jumps\Project 1\Capture day 1\Session 1\subject.ASF
:FULLY-SPECIFIED
:DEGREES
393
root 0.0197364 21.3097 -2.95094 9.67041 1.57613 -2.03517
lowerback 11.9101 -0.33041 -1.09215
upperback 4.19191 -0.49682 1.92087
thorax -2.26535 -0.2611 2.68146
lowerneck -11.8542 0.753768 -0.918757
upperneck 21.9221 1.24001 -0.00300975
head 8.79387 0.503698 0.289323
rclavicle -1.39149e-015 1.98785e-016
rhumerus -12.3281 -11.7676 -83.9776
rradius 27.8371
rwrist 32.1688
rhand -20.8964 -25.3987
rfingers 7.12502
rthumb 5.47439 -55.308
lclavicle -1.39149e-015 1.98785e-016
lhumerus -11.5798 -5.00012 89.4606
lradius 23.3293
lwrist 19.7504
lhand -23.4112 -8.6572
lfingers 7.12502
lthumb 3.04604 21.3008
rfemur -35.2168 -7.72517 24.0289
rtibia 71.1353
rfoot 6.32726 -4.95638
rtoes 14.5446
lfemur -36.8477 10.264 -18.0465
ltibia 70.2782
lfoot 2.28887 5.68297
ltoes -3.21275
394
root 0.010394 21.342 -2.77761 9.69814 1.56261 -2.12634
lowerback 12.5645 -0.327212 -1.12001
upperback 4.21501 -0.49594 1.94559
thorax -2.59637 -0.257444 2.73198
lowerneck -12.126 0.776873 -0.902027
upperneck 21.9947 1.2638 0.03181
head 8.86893 0.518716 0.302677
rclavicle 5.56597e-015 -1.5207e-014
rhumerus -12.4754 -11.8739 -83.9633
rradius 27.6452
rwrist 32.3297
rhand -20.8513 -25.426
rfingers 7.12502
rthumb 5.51792 -55.3341
lclavicle 5.56597e-015 -1.5207e-014
lhumerus -11.5168 -4.55952 89.4945
lradius 22.7435
lwrist 19.2156
lhand -23.2877 -8.54638
lfingers 7.12502
lthumb 3.16524 21.4099
rfemur -37.3376 -7.68803 24.3739
rtibia 71.4733
rfoot 5.29976 -4.67125
rtoes 13.6417
lfemur -38.8604 10.7648 -18.4386
ltibia 71.0216
lfoot 1.39855 5.30504
ltoes -2.91037
395
root -0.000552294 21.4696 -2.58685 9.78336 1.54378 -2.15251
lowerback 13.0994 -0.318662 -1.20734
upperback 4.22531 -0.496393 1.94662
thorax -2.87478 -0.254758 2.79036
lowerneck -12.3779 0.799921 -0.862203
upperneck 22.0637 1.28432 0.0566949
head 8.93943 0.533176 0.308398
rclavicle -1.44616e-014 2.68359e-014
rhumerus -12.6203 -12.0969 -83.9532
rradius 27.4455
rwrist 32.5105
rhand -20.7911 -25.4716
rfingers 7.12502
rthumb 5.57606 -55.3782
lclavicle -1.44616e-014 2.68359e-014
lhumerus -11.439 -4.04506 89.5079
lradius 22.1598
lwrist 18.6059
lhand -23.1963 -8.43304
lfingers 7.12502
lthumb 3.25351 21.5219
rfemur -38.9082 -7.60965 24.6172
rtibia 71.0311
rfoot 4.40438 -4.35634
rtoes 12.8262
lfemur -40.3232 11.1946 -18.9016
ltibia 70.9798
lfoot 0.651849 4.76946
ltoes -2.74776
396
root -0.0101987 21.4765 -2.40754 9.89468 1.51838 -2.12258
lowerback 13.5382 -0.303474 -1.34462
upperback 4.23495 -0.496398 1.9238
thorax -3.10111 -0.252148 2.85079
lowerneck -12.6184 0.824468 -0.802352
upperneck 22.1365 1.30204 0.0816798
head 9.00941 0.548051 0.31051
rclavicle -1.38404e-014 7.40473e-015
rhumerus -12.7607 -12.4358 -83.9485
rradius 27.2393
rwrist 32.6928
rhand -20.7318 -25.5349
rfingers 7.12502
rthumb 5.63328 -55.44
lclavicle -1.38404e-014 7.40473e-015
lhumerus -11.3396 -3.45942 89.498
lradius 21.5727
lwrist 17.9402
lhand -23.1854 -8.41339
lfingers 7.12502
lthumb 3.26401 21.5414
rfemur -40.8882 -7.4825 24.7835
rtibia 70.8279
rfoot 3.61384 -4.0574
rtoes 12.137
lfemur -42.2168 11.5277 -19.4352
ltibia 71.149
lfoot 0.0108613 4.16518
ltoes -2.74779
397
root -0.0196226 21.4686 -2.22328 9.9991 1.49604 -2.05981
lowerback 13.9109 -0.287777 -1.50011
upperback 4.25282 -0.500159 1.88225
thorax -3.28246 -0.251701 2.90152
lowerneck -12.8461 0.849457 -0.72998
upperneck 22.2081 1.31555 0.112717
head 9.07675 0.562752 0.312096
rclavicle -4.82053e-015 5.96354e-016
rhumerus -12.893 -12.88 -83.9472
rradius 27.0156
rwrist 32.8834
rhand -20.6923 -25.6017
rfingers 7.12502
rthumb 5.67143 -55.5058
lclavicle -4.82053e-015 5.96354e-016
lhumerus -11.2178 -2.76601 89.4598
lradius 20.9797
lwrist 17.1916
lhand -23.2545 -8.4453
lfingers 7.12502
lthumb 3.19736 21.5105
rfemur -42.7156 -7.33744 24.8833
rtibia 70.3371
rfoot 2.90815 -3.77795
rtoes 11.505
lfemur -43.9736 11.7649 -19.9878
ltibia 71.0056
lfoot -0.578875 3.54913
ltoes -2.86395
398
root -0.029037 21.4456 -2.03366 10.0716 1.48243 -1.9856
lowerback 14.2378 -0.275474 -1.65546
upperback 4.28889 -0.510047 1.82933
thorax -3.41937 -0.25481 2.94042
lowerneck -13.0851 0.876127 -0.639862
upperneck 22.2934 1.32646 0.145948
head 9.15123 0.577951 0.311356
rclavicle -3.49116e-015 3.03147e-015
rhumerus -13.0232 -13.3811 -83.9488
rradius 26.7902
rwrist 33.0686
rhand -20.6669 -25.6706
rfingers 7.12502
rthumb 5.69595 -55.574
lclavicle -3.49116e-015 3.03147e-015
lhumerus -11.0773 -1.95722 89.3925
lradius 20.382
lwrist 16.3903
lhand -23.4085 -8.5795
lfingers 7.12502
lthumb 3.04856 21.3785
rfemur -44.3941 -7.17913 24.9387
rtibia 69.7354
rfoot 2.11063 -3.53651
rtoes 10.8615
lfemur -45.595 11.907 -20.519
ltibia 70.7218
lfoot -1.27634 3.01061
ltoes -3.05907
399
root -0.0380425 21.4079 -1.83848 10.0928 1.48778 -1.91815
lowerback 14.5366 -0.271009 -1.79006
upperback 4.34532 -0.528393 1.77446
thorax -3.51907 -0.262715 2.96634
lowerneck -13.3192 0.902321 -0.552869
upperneck 22.3845 1.33412 0.190226
head 9.22686 0.592669 0.31462
rclavicle 4.50993e-015 -3.10601e-015
rhumerus -13.1619 -13.9146 -83.9449
rradius 26.5703
rwrist 33.2708
rhand -20.6641 -25.7214
rfingers 7.12502
rthumb 5.69862 -55.6248
lclavicle 4.50993e-015 -3.10601e-015
lhumerus -10.9182 -1.05257 89.304
lradius 19.7753
lwrist 15.6004
lhand -23.6377 -8.78838
lfingers 7.12502
lthumb 2.8273 21.1726
rfemur -45.8354 -7.02111 24.9647
rtibia 68.8338
rfoot 1.33933 -3.34454
rtoes 10.1872
lfemur -46.9985 11.9508 -20.9971
ltibia 70.1003
lfoot -1.9622 2.5521
ltoes -3.38909
400
root -0.0468298 21.3556 -1.63771 10.0532 1.52164 -1.88542
lowerback 14.8175 -0.277605 -1.87785
upperback 4.41733 -0.554793 1.7289
thorax -3.59231 -0.275162 2.97654
lowerneck -13.5356 0.929084 -0.463636
upperneck 22.4873 1.3417 0.2329
head 9.30347 0.607474 0.316984
rclavicle 8.31246e-015 1.06691e-015
rhumerus -13.3141 -14.4626 -83.9313
rradius 26.3493
rwrist 33.5101
rhand -20.6826 -25.7582
rfingers 7.12502
rthumb 5.68082 -55.6621
lclavicle 8.31246e-015 1.06691e-015
lhumerus -10.7665 -0.031437 89.202
lradius 19.1779
lwrist 14.8348
lhand -23.9193 -9.05093
lfingers 7.12502
lthumb 2.55528 20.9135
rfemur -47.0162 -6.85927 24.9881
rtibia 67.6297
rfoot 0.592288 -3.19833
rtoes 9.47082
lfemur -48.1631 11.9013 -21.3778
ltibia 69.134
lfoot -2.63766 2.19326
ltoes -3.92529
401
root -0.0550217 21.2898 -1.43098 9.95561 1.5816 -1.87587
lowerback 15.0711 -0.294547 -1.9311
upperback 4.50118 -0.589416 1.69336
thorax -3.63781 -0.292252 2.97869
lowerneck -13.7254 0.949867 -0.380402
upperneck 22.6029 1.34291 0.270578
head 9.37979 0.618384 0.317856
rclavicle 2.4289e-015 -5.30507e-015
rhumerus -13.5088 -14.9598 -83.9002
rradius 26.1646
rwrist 33.7543
rhand -20.7044 -25.7923
rfingers 7.12502
rthumb 5.65974 -55.6967
lclavicle 2.4289e-015 -5.30507e-015
lhumerus -10.6213 1.05472 89.0944
lradius 18.5906
lwrist 14.1766
lhand -24.242 -9.39375
lfingers 7.12502
lthumb 2.2436 20.5742
rfemur -47.9342 -6.69972 24.9897
rtibia 66.1301
rfoot -0.117558 -3.05953
rtoes 8.69038
lfemur -49.0744 11.7632 -21.6702
ltibia 67.8166
lfoot -3.27219 1.94589
ltoes -4.68065
402
root -0.0629688 21.2106 -1.21804 9.80368 1.67222 -1.90285
lowerback 15.288 -0.322179 -1.93883
upperback 4.59372 -0.630355 1.67246
thorax -3.65417 -0.313072 2.971
lowerneck -13.8592 0.963992 -0.309825
upperneck 22.7209 1.33706 0.308724
head 9.4465 0.625192 0.319873
rclavicle 8.69683e-016 1.68222e-014
rhumerus -13.7426 -15.3932 -83.8557
rradius 26.0105
rwrist 33.9869
rhand -20.7258 -25.8266
rfingers 7.12502
rthumb 5.63912 -55.7316
lclavicle 8.69683e-016 1.68222e-014
lhumerus -10.4996 2.19125 88.9849
lradius 18.0352
lwrist 13.6302
lhand -24.5759 -9.78405
lfingers 7.12502
lthumb 1.92119 20.187
rfemur -48.6683 -6.54015 24.9829
rtibia 64.6033
rfoot -0.937916 -2.89737
rtoes 7.88677
lfemur -49.8065 11.5478 -21.854
ltibia 66.4029
lfoot -4.02919 1.83867
ltoes -5.72656
403
root -0.0706687 21.1184 -0.998328 9.6079 1.7866 -1.96994
lowerback 15.4539 -0.356825 -1.89843
upperback 4.68577 -0.671849 1.66754
thorax -3.64395 -0.334635 2.95217
lowerneck -13.9245 0.967622 -0.250673
upperneck 22.8451 1.31993 0.342456
head 9.5026 0.625494 0.320542
rclavicle -1.7344e-014 1.27719e-014
rhumerus -14.0291 -15.7504 -83.7916
rradius 25.888
rwrist 34.1933
rhand -20.7361 -25.8535
rfingers 7.12502
rthumb 5.62919 -55.7587
lclavicle -1.7344e-014 1.27719e-014
lhumerus -10.4189 3.35157 88.8753
lradius 17.5297
lwrist 13.1788
lhand -24.869 -10.1425
lfingers 7.12502
lthumb 1.63808 19.831
rfemur -49.1622 -6.3783 24.9703
rtibia 62.8352
rfoot -1.64608 -2.66869
rtoes 7.09032
lfemur -50.3052 11.2753 -21.9252
ltibia 64.6774
lfoot -4.73403 1.78584
ltoes -7.05199
404
root -0.0769354 20.8864 -0.751652 9.37795 1.92249 -2.06525
lowerback 15.5443 -0.398253 -1.81932
upperback 4.7806 -0.714912 1.67295
thorax -3.59058 -0.357653 2.92122
lowerneck -13.9232 0.958853 -0.214831
upperneck 22.9727 1.28802 0.387825
head 9.54729 0.618409 0.326956
rclavicle -4.67144e-015 1.93815e-014
rhumerus -14.3708 -16.0103 -83.7157
rradius 25.8137
rwrist 34.3314
rhand -20.729 -25.9
rfingers 7.12502
rthumb 5.63596 -55.8051
lclavicle -4.67144e-015 1.93815e-014
lhumerus -10.3774 4.48314 88.7652
lradius 17.0864
lwrist 12.8301
lhand -25.1279 -10.4845
lfingers 7.12502
lthumb 1.38802 19.4908
rfemur -49.9598 -6.22428 24.9453
rtibia 61.3902
rfoot -2.19721 -2.3456
rtoes 6.32091
lfemur -51.1207 10.953 -21.9045
ltibia 63.2071
lfoot -5.36615 1.73965
ltoes -8.69295
405
root -0.0842992 20.7713 -0.513263 9.12119 2.07291 -2.18884
lowerback 15.5511 -0.442439 -1.7062
upperback 4.87227 -0.755163 1.6871
thorax -3.49641 -0.379773 2.87814
lowerneck -13.8492 0.936691 -0.21034
upperneck 23.1053 1.23905 0.456616
head 9.57967 0.603481 0.344256
rclavicle 2.37051e-014 -1.77415e-014
rhumerus -14.7594 -16.2133 -83.6287
rradius 25.7656
rwrist 34.4277
rhand -20.7145 -25.9425
rfingers 7.12502
rthumb 5.64997 -55.8472
lclavicle 2.37051e-014 -1.77415e-014
lhumerus -10.3824 5.5312 88.6539
lradius 16.7033
lwrist 12.5843
lhand -25.3568 -10.7938
lfingers 7.12502
lthumb 1.16693 19.1827
rfemur -49.9957 -6.08696 24.9033
rtibia 59.221
rfoot -2.51175 -1.91826
rtoes 5.56031
lfemur -51.1599 10.6126 -21.7836
ltibia 60.9191
lfoot -5.88156 1.62671
ltoes -10.5783
406
root -0.0916356 20.6443 -0.266428 8.84202 2.22962 -2.32963
lowerback 15.4607 -0.485691 -1.57003
upperback 4.96258 -0.790004 1.70436
thorax -3.35257 -0.399728 2.82235
lowerneck -13.731 0.900587 -0.228792
upperneck 23.2626 1.17079 0.546621
head 9.61225 0.58005 0.370327
rclavicle 4.00054e-015 4.96962e-016
rhumerus -15.2015 -16.3437 -83.5322
rradius 25.7591
rwrist 34.4495
rhand -20.6972 -25.985
rfingers 7.12502
rthumb 5.66675 -55.8892
lclavicle 4.00054e-015 4.96962e-016
lhumerus -10.4296 6.44988 88.5405
lradius 16.3835
lwrist 12.4434
lhand -25.5518 -11.0508
lfingers 7.12502
lthumb 0.978631 18.9267
rfemur -49.8397 -5.96133 24.8407
rtibia 56.9326
rfoot -2.54488 -1.4032
rtoes 4.73947
lfemur -51.0002 10.2676 -21.5894
ltibia 58.4208
lfoot -6.22488 1.40082
ltoes -12.587
